<svg version="1.1" xmlns="http://www.w3.org/2000/svg" x="0px" y="0px" viewBox="0 0 256 256"
     enable-background="new 0 0 256 256" xml:space="preserve">
<g><path fill="#000000" d="M92.1,10.7c-8.2,1.8-16,7.9-19.8,15.4c-1.1,2.2-2.2,5.2-2.5,6.8l-0.6,2.9H52.5H35.8V82v46.2l-2.9,0.6c-4.8,0.9-10.2,3.9-14.2,7.9c-11.6,11.6-11.6,30,0,41.6c4.1,4,9.4,7,14.2,7.9l2.9,0.6v16.7v16.7h46.2h46.2l0.6,2.9c1.5,7.8,7.7,15.9,15.4,19.6c8.8,4.4,17.8,4.4,26.7,0c7.5-3.7,13.9-11.8,15.4-19.6l0.6-2.9h16.7h16.7v-16.7v-16.7l2.9-0.6c7.7-1.5,15.8-7.8,19.6-15.4c4.4-8.8,4.4-17.8,0-26.7c-3.7-7.5-11.8-13.8-19.7-15.4l-2.9-0.6V82V35.8H174h-46.2l-0.6-2.9c-0.3-1.6-1.4-4.6-2.5-6.8C118.7,14.2,105.2,7.9,92.1,10.7z M69.8,46c0.3,1.6,1.4,4.7,2.5,6.8C76,60.3,84.2,66.7,92,68.2c1.6,0.3,2.9,0.6,2.9,0.8s-1.3,0.5-2.9,0.8c-1.6,0.3-4.7,1.4-6.8,2.5C77.6,76,71.3,84.1,69.8,91.9l-0.6,2.9h-13h-13V69V43.2h13h13L69.8,46z M153.8,56.2v13l-2.9,0.6c-10.3,2-20.2,11.9-22.2,22.2c-0.3,1.6-0.6,2.9-0.8,2.9c-0.1,0-0.5-1.3-0.8-2.9c-2-10.3-11.9-20.2-22.2-22.2c-1.6-0.3-2.9-0.6-2.9-0.8s1.3-0.5,2.9-0.8c10-1.9,20.2-12.1,22.1-22.2l0.6-2.9h13h13V56.2z M212.8,69v25.8h-13h-13l-0.6-2.9c-1.5-7.7-7.9-16-15.4-19.6c-2.2-1.1-5.2-2.2-6.8-2.5l-2.9-0.6v-13v-13H187h25.8V69z M103.8,77c11,2.9,18.2,13.6,16.5,24.8c-1.8,11.9-13.2,20.3-25,18.5c-12.8-2-21.4-14.8-18.2-27C80.2,81.4,92.2,74.1,103.8,77z M69.8,105c2,10.3,11.9,20.2,22.2,22.2c1.6,0.3,2.9,0.6,2.9,0.8c0,0.1-1.3,0.5-2.9,0.8c-10.3,2-20.2,11.9-22.2,22.2c-0.3,1.6-0.6,2.9-0.8,2.9c-0.1,0-0.5-1.3-0.8-2.9c-2-10.3-11.9-20.2-22.2-22.2l-2.9-0.6v-13v-13h13h13L69.8,105z M128.8,105c0.3,1.6,1.4,4.7,2.5,6.8c3.7,7.5,11.9,13.9,19.7,15.4c1.6,0.3,2.9,0.6,2.9,0.8c0,0.1-1.3,0.5-2.9,0.8c-10.3,2-20.2,11.9-22.2,22.2c-0.3,1.6-0.6,2.9-0.8,2.9c-0.1,0-0.5-1.3-0.8-2.9c-1.5-7.7-7.9-16-15.4-19.6c-2.2-1.1-5.2-2.2-6.8-2.5c-1.6-0.3-2.9-0.6-2.9-0.8c0-0.1,1.3-0.5,2.9-0.8c10-1.9,20.2-12.1,22.1-22.2c0.3-1.6,0.6-2.9,0.8-2.9C128.1,102.2,128.5,103.5,128.8,105z M212.8,115.2v13l-2.9,0.6c-10.3,2-20.2,11.9-22.2,22.2c-0.3,1.6-0.6,2.9-0.8,2.9c-0.1,0-0.5-1.3-0.8-2.9c-2-10.3-11.9-20.2-22.2-22.2c-1.6-0.3-2.9-0.6-2.9-0.8c0-0.1,1.2-0.5,2.8-0.8c1.5-0.3,4.6-1.4,6.8-2.5c7.6-3.7,14-11.9,15.4-19.7l0.6-2.9h13h13V115.2L212.8,115.2z M44.8,136.1c7.9,2.1,14.1,8.3,16.1,16.2c3,11.5-4.3,23.6-16.1,26.6c-11.6,3-23.6-4.3-26.7-16.1C14,147,29,132,44.8,136.1z M162.8,136.1c11.8,3.1,19.1,15.2,16.1,26.6c-2.1,8-8.2,14.2-16.1,16.2c-11.6,3-23.6-4.3-26.7-16.1C132,147,147,132,162.8,136.1z M221.8,136.1c7.9,2.1,14.1,8.3,16.1,16.2c3,11.5-4.3,23.6-16.1,26.6c-11.6,3-23.6-4.3-26.7-16.1C191,147,206,132,221.8,136.1z M69.8,164c0.3,1.6,1.4,4.7,2.5,6.8c3.7,7.5,11.9,13.9,19.7,15.4l2.9,0.6v13v13H69H43.2v-13v-13l2.9-0.6c10-1.9,20.2-12.1,22.1-22.2c0.3-1.6,0.6-2.9,0.8-2.9C69.1,161.2,69.5,162.5,69.8,164z M128.8,164c2,10.3,11.9,20.2,22.2,22.2c1.6,0.3,2.9,0.6,2.9,0.8c0,0.1-1.3,0.5-2.9,0.8c-10.3,2-20.2,11.9-22.2,22.2l-0.6,2.9h-13h-13v-13v-13l2.8-0.6c1.5-0.3,4.6-1.4,6.8-2.5c7.6-3.7,14-11.9,15.4-19.7c0.3-1.6,0.6-2.9,0.8-2.9C128.1,161.2,128.5,162.5,128.8,164z M187.8,164c2,10.3,11.9,20.2,22.2,22.2l2.9,0.6v13v13h-13h-13l-0.6-2.9c-1.5-7.7-7.9-16-15.4-19.6c-2.2-1.1-5.2-2.2-6.8-2.5c-1.6-0.3-2.9-0.6-2.9-0.8c0-0.1,1.3-0.5,2.9-0.8c10-1.9,20.2-12.1,22.1-22.2c0.3-1.6,0.6-2.9,0.8-2.9C187.2,161.2,187.5,162.5,187.8,164z"/></g>
</svg>
